<?xml version="1.0" encoding="utf-8"?>
<!DOCTYPE svg PUBLIC "-//W3C//DTD SVG 1.0//EN" "http://www.w3.org/TR/2001/REC-SVG-20010904/DTD/svg10.dtd">
<svg version="1.0" xmlns="http://www.w3.org/2000/svg" width="500px" height="500px" viewBox="0 0 500 500" preserveAspectRatio="xMidYMid meet">
 <g fill="#001c4f">
  <path d="M160.5 362.9 c-27.4 -2.8 -43.9 -9.4 -57.7 -23 -10 -9.8 -14.1 -18 -15.8 -31.9 -0.6 -5.2 -1 -11.1 -0.8 -13 l0.3 -3.5 29.8 -0.3 29.7 -0.2 0 4.8 c0 6.2 3.9 14.2 9 18.2 11.1 8.8 36.2 7.6 45.8 -2.3 3.6 -3.7 6.2 -10.3 6.2 -15.6 0 -14.1 -8 -20.9 -42.1 -36 -30.5 -13.6 -37.8 -17.9 -47.6 -27.9 -7 -7.1 -12.5 -17.1 -14.4 -25.9 -1.9 -9.2 -0.6 -29.2 2.4 -37.8 9.9 -28.4 35.4 -46.1 74.2 -51.5 14.5 -2 31.7 -0.7 48.5 3.6 21.1 5.4 37.9 17.9 45.7 34.1 3.6 7.5 6.7 21.4 6.1 28.1 l-0.3 3.7 -30.1 0.3 -30.2 0.2 -0.4 -6 c-1.2 -16.1 -19.6 -25.2 -38.7 -19 -9 2.9 -13.4 6.6 -16 13.6 -6.5 17.3 2.1 27.4 36.9 43.6 19.8 9.2 35.4 17.7 42.7 23.3 8.5 6.4 7.4 7.1 16.3 -10 3.5 -6.6 6.6 -12.4 7 -13 0.4 -0.5 3.8 -6.8 7.5 -14 3.7 -7.1 7.2 -13.6 7.8 -14.3 0.7 -0.9 6.3 -1.2 21.8 -1.2 18.9 0 20.8 0.2 21.2 1.8 0.3 0.9 1 4.9 1.7 8.7 1.6 9.8 5.8 32.7 7.5 41 0.8 3.9 3 15.8 5 26.5 1.9 10.7 4.4 24 5.5 29.5 1 5.5 2.6 14 3.5 18.9 1.9 10.2 3 13.6 4.5 13.6 0.7 0 1 -22.9 1 -70 l0 -70 17.5 0 17.5 0 -0.2 77.3 -0.3 77.2 -35.7 0 c-19.6 0 -35.9 -0.3 -36.2 -0.6 -0.3 -0.3 -1.5 -6.5 -2.8 -13.7 l-2.2 -13.2 -24.2 0 -24.2 0 -3.8 6.8 c-10.1 18.2 -33 33.1 -57.4 37.1 -17.7 2.9 -27.8 3.4 -41.5 2z m146.3 -74.1 c0.2 -0.9 -0.1 -4.7 -0.7 -8.5 -3.4 -22.7 -6.4 -40.7 -7.7 -47.5 -0.9 -4.5 -2.7 -3.2 -6.9 5 -2.2 4.2 -8.7 16.5 -14.3 27.3 -5.6 10.8 -10.2 20.4 -10.2 21.2 0 3.8 2.1 4.2 21.1 4.2 16.2 -0.1 18.4 -0.3 18.7 -1.7z"/>
 </g>
</svg>